<svg xmlns="http://www.w3.org/2000/svg" aria-hidden="true" style="position:absolute;width:0;height:0;overflow:hidden">
  <defs>
    <symbol id="icon-inst" viewBox="0 0 32 32">
      <path stroke-linecap="round" stroke-linejoin="round" stroke-width="2" d="M22.667 2.667H9.334a6.667 6.667 0 0 0-6.667 6.667v13.333a6.667 6.667 0 0 0 6.667 6.667h13.333a6.667 6.667 0 0 0 6.667-6.667V9.334a6.667 6.667 0 0 0-6.667-6.667z"/>
      <path stroke-linecap="round" stroke-linejoin="round" stroke-width="2" d="M21.333 15.16a5.329 5.329 0 0 1-2.878 5.546 5.337 5.337 0 0 1-6.169-.992 5.33 5.33 0 0 1 1.316-8.505 5.336 5.336 0 0 1 6.228.962 5.328 5.328 0 0 1 1.504 2.989zM23.333 8.667h.013"/>
    </symbol>
    <symbol id="icon-facebook" viewBox="0 0 19 32">
      <path stroke-linecap="round" stroke-linejoin="round" stroke-width="2.182" d="M17.455 1.455h-4.364a7.273 7.273 0 0 0-7.273 7.273v4.364H1.454v5.818h4.364v11.636h5.818V18.91H16l1.455-5.818h-5.818V8.728a1.455 1.455 0 0 1 1.455-1.455h4.364V1.455z"/>
    </symbol>
    <symbol id="icon-twit" viewBox="0 0 38 32">
      <path stroke-linecap="round" stroke-linejoin="round" stroke-width="2.4" d="M36.8 1.6a17.446 17.446 0 0 1-5.024 2.448 7.172 7.172 0 0 0-7.965-1.993 7.172 7.172 0 0 0-4.612 6.793v1.6c-2.812.073-5.598-.551-8.11-1.815s-5.473-4.276-7.09-6.578c0 0-5.6 15.545 8.8 21.945a18.625 18.625 0 0 1-11.2 3.2c14.4 8 32 0 32-18.4a7.131 7.131 0 0 0-.128-1.328A12.354 12.354 0 0 0 36.799 1.6z"/>
    </symbol>
    <symbol id="icon-mobile2" viewBox="0 0 32 32">
      <path d="M24 0H6C4.9 0 4 .9 4 2v28c0 1.1.9 2 2 2h18c1.1 0 2-.9 2-2V2c0-1.1-.9-2-2-2zm-9 30.556a1.556 1.556 0 1 1 0-3.113 1.556 1.556 0 0 1 0 3.113zM24 26H6V4h18v22z"/>
    </symbol>
  </defs>
</svg>
