<svg width="10" height="10" viewBox="0 0 10 10" fill="none" xmlns="http://www.w3.org/2000/svg">
<path d="M9.00001 4.37006C9.12342 5.2023 8.98127 6.05227 8.59377 6.79907C8.20627 7.54587 7.59316 8.15147 6.84164 8.52973C6.09012 8.90799 5.23846 9.03965 4.4078 8.90599C3.57714 8.77233 2.80977 8.38014 2.21485 7.78522C1.61993 7.1903 1.22774 6.42293 1.09408 5.59227C0.960415 4.76161 1.09208 3.90995 1.47034 3.15843C1.8486 2.40691 2.4542 1.7938 3.201 1.4063C3.9478 1.0188 4.79777 0.876646 5.63001 1.00006C6.47894 1.12594 7.26486 1.52152 7.87171 2.12836C8.47855 2.73521 8.87413 3.52113 9.00001 4.37006Z" stroke="#111111" stroke-width="1.5" stroke-linecap="round" stroke-linejoin="round"/>
<path d="M9.00001 4.37006C9.12342 5.2023 8.98127 6.05227 8.59377 6.79907C8.20627 7.54587 7.59316 8.15147 6.84164 8.52973C6.09012 8.90799 5.23846 9.03965 4.4078 8.90599C3.57714 8.77233 2.80977 8.38014 2.21485 7.78522C1.61993 7.1903 1.22774 6.42293 1.09408 5.59227C0.960415 4.76161 1.09208 3.90995 1.47034 3.15843C1.8486 2.40691 2.4542 1.7938 3.201 1.4063C3.9478 1.0188 4.79777 0.876646 5.63001 1.00006C6.47894 1.12594 7.26486 1.52152 7.87171 2.12836C8.47855 2.73521 8.87413 3.52113 9.00001 4.37006Z" stroke="#111111" stroke-width="1.5" stroke-linecap="round" stroke-linejoin="round"/>
</svg>
